<svg xmlns="http://www.w3.org/2000/svg" viewBox="0 0 1006.84 147.65"><defs><style>.a05b5cc0-60f4-4500-9d72-d0bdb463ef34{fill:#6cc6ee;}</style></defs><g id="ba8d1ecf-194f-4b2f-80d3-e2794b79faf8" data-name="Layer 2"><g id="e98bc8fe-4f89-4c26-a2be-7b72cf51a746" data-name="Layer 1"><path class="a05b5cc0-60f4-4500-9d72-d0bdb463ef34" d="M873.06,104.7,915,0H930.4l38.8,104.7H943.86L937.48,87H905.34l-6.8,17.66ZM914.69,64H929l-6.8-18.49Z"/><path class="a05b5cc0-60f4-4500-9d72-d0bdb463ef34" d="M980.25,104.56V.42h23.5V104.56Z"/><path d="M0,105.19V.69H23.59v104.5Z"/><path d="M62.8,105.19H39.07V.55H58.82l44.47,57.9V.55H127V105.19H109.26L62.8,44.78Z"/><path d="M215.25,24H188.82v81.2H165.09V24H138.67V.69h76.58Z"/><path d="M250.06,23.43V41.57H280.6V64.31H250.06v18h50.15v22.88H226.9V.69h73.31V23.43Z"/><path d="M315.84,105.19V.83h23.58V81.89h52v23.3Z"/><path d="M479.66,77.29c-.86,9.06-7,17.3-16.34,22.32a49.37,49.37,0,0,1-23.59,5.58c-1.85,0-3.69-.14-5.4-.28-15.06-1.39-28.13-8.37-34.81-18.42L419,73.94c2.27,3.62,8.52,7.53,17.47,8.37,5.83.56,11.65-.42,15.77-2.65,2.56-1.26,4.27-3.07,4.41-4.61.14-2.09-.57-9.07-18.19-10.74-25.15-2.37-40.78-16.74-38.93-35.58.85-9.35,7-17.44,16.48-22.6A53.88,53.88,0,0,1,445,1c14.92,1.39,28,8.37,34.81,18.41L460.33,31.8c-2.27-3.49-8.52-7.25-17.62-8.09-5.82-.56-11.65.42-15.77,2.51-2.41,1.4-4.12,3.21-4.26,4.61C422,37.94,434.19,41,440.73,41.57v.14C466.3,44.08,481.5,58,479.66,77.29Z"/><path d="M517.31,23.43V41.57h30.54V64.31H517.31v18h50.15v22.88H494.15V.69h73.31V23.43Z"/><path d="M606.81,105.19H583.09V.55h19.75l44.47,57.9V.55H671V105.19H653.28L606.81,44.78Z"/><path d="M765.8,77.29c-.85,9.06-7,17.3-16.34,22.32a49.33,49.33,0,0,1-23.58,5.58c-1.85,0-3.7-.14-5.4-.28-15.06-1.39-28.14-8.37-34.81-18.42l19.46-12.55c2.27,3.62,8.53,7.53,17.48,8.37,5.82.56,11.65-.42,15.77-2.65,2.56-1.26,4.26-3.07,4.4-4.61.15-2.09-.57-9.07-18.18-10.74-25.15-2.37-40.78-16.74-38.93-35.58.85-9.35,7-17.44,16.48-22.6a53.84,53.84,0,0,1,29-5.16c14.92,1.39,28,8.37,34.81,18.41L746.48,31.8c-2.28-3.49-8.53-7.25-17.62-8.09-5.83-.56-11.65.42-15.77,2.51-2.42,1.4-4.12,3.21-4.26,4.61-.71,7.11,11.5,10.18,18,10.74v.14C752.45,44.08,767.65,58,765.8,77.29Z"/><path d="M803.45,23.43V41.57H834V64.31H803.45v18h50.16v22.88H780.29V.69h73.32V23.43Z"/><path d="M212.19,146.86a8.76,8.76,0,0,1-3.53-2.07l.93-1.78a8.84,8.84,0,0,0,3.22,1.92,12,12,0,0,0,4.15.74,7.7,7.7,0,0,0,4.5-1.08,3.32,3.32,0,0,0,1.5-2.81,2.78,2.78,0,0,0-.82-2.1,5.44,5.44,0,0,0-2-1.2c-.79-.28-1.88-.59-3.29-.93a34.93,34.93,0,0,1-4-1.2,6.66,6.66,0,0,1-2.57-1.77,4.68,4.68,0,0,1-1.07-3.23,5.39,5.39,0,0,1,.9-3,6.1,6.1,0,0,1,2.74-2.17,11.3,11.3,0,0,1,4.6-.82,13.63,13.63,0,0,1,3.75.52,10.86,10.86,0,0,1,3.17,1.42l-.79,1.85a11.26,11.26,0,0,0-3-1.36,11.55,11.55,0,0,0-3.13-.45,7.33,7.33,0,0,0-4.42,1.11,3.44,3.44,0,0,0-1.49,2.87,2.8,2.8,0,0,0,.82,2.11,5.32,5.32,0,0,0,2,1.22c.82.29,1.92.59,3.3.93a35.78,35.78,0,0,1,4,1.17,6.46,6.46,0,0,1,2.56,1.76,4.54,4.54,0,0,1,1.06,3.18,5.36,5.36,0,0,1-.91,3,6.19,6.19,0,0,1-2.79,2.17,11.93,11.93,0,0,1-4.63.8A14.64,14.64,0,0,1,212.19,146.86Z"/><path d="M278.14,145.45v2h-15.8V125.52h15.32v2h-13v7.8h11.56v2H264.7v8.15Z"/><path d="M334.28,125.52v21.94h-1.95L318,129.66v17.8h-2.36V125.52h1.95L332,143.32v-17.8Z"/><path d="M374.86,146.86a8.76,8.76,0,0,1-3.53-2.07l.93-1.78a8.92,8.92,0,0,0,3.22,1.92,12,12,0,0,0,4.15.74,7.7,7.7,0,0,0,4.5-1.08,3.32,3.32,0,0,0,1.5-2.81,2.81,2.81,0,0,0-.81-2.1,5.52,5.52,0,0,0-2-1.2c-.79-.28-1.89-.59-3.29-.93a34.93,34.93,0,0,1-4-1.2,6.66,6.66,0,0,1-2.57-1.77,4.63,4.63,0,0,1-1.07-3.23,5.46,5.46,0,0,1,.89-3,6.13,6.13,0,0,1,2.75-2.17,11.25,11.25,0,0,1,4.59-.82,13.53,13.53,0,0,1,3.75.52,11,11,0,0,1,3.18,1.42l-.8,1.85a11.26,11.26,0,0,0-3-1.36,11.55,11.55,0,0,0-3.13-.45,7.33,7.33,0,0,0-4.42,1.11,3.43,3.43,0,0,0-1.48,2.87,2.83,2.83,0,0,0,.81,2.11,5.32,5.32,0,0,0,2,1.22c.82.29,1.92.59,3.31.93a35.52,35.52,0,0,1,4,1.17,6.5,6.5,0,0,1,2.57,1.76,4.59,4.59,0,0,1,1,3.18,5.29,5.29,0,0,1-.91,3,6.08,6.08,0,0,1-2.79,2.17,11.9,11.9,0,0,1-4.63.8A14.64,14.64,0,0,1,374.86,146.86Z"/><path d="M440.82,145.45v2H425V125.52h15.32v2h-13v7.8h11.55v2H427.38v8.15Z"/><path d="M522.9,127.53h-7.85v-2h18.07v2h-7.86v19.93H522.9Z"/><path d="M587.47,125.52v21.94h-2.33V137.33h-14v10.13H568.8V125.52h2.36v9.78h14v-9.78Z"/><path d="M642.46,145.45v2h-15.8V125.52H642v2H629v7.8h11.56v2H629v8.15Z"/><path d="M722.57,127.53v8.61h11.55v2H722.57v9.31h-2.36V125.52h15.32v2Z"/><path d="M774.56,145.2q-2.43-2.44-2.43-7.11V125.52h2.36V138q0,3.82,1.76,5.71a7.83,7.83,0,0,0,10.18,0q1.76-1.89,1.76-5.71V125.52h2.29v12.57q0,4.66-2.41,7.11a10.54,10.54,0,0,1-13.51,0Z"/><path d="M833.41,127.53h-7.85v-2h18.07v2h-7.86v19.93h-2.36Z"/><path d="M881.09,145.2q-2.42-2.44-2.42-7.11V125.52H881V138c0,2.55.58,4.45,1.76,5.71a7.83,7.83,0,0,0,10.18,0q1.75-1.89,1.75-5.71V125.52H897v12.57q0,4.66-2.41,7.11a10.55,10.55,0,0,1-13.52,0Z"/><path d="M951.31,147.46l-5.11-7.05a17.1,17.1,0,0,1-1.78.09h-6v7h-2.36V125.52h8.37a10.2,10.2,0,0,1,6.7,2,6.77,6.77,0,0,1,2.42,5.51,7.06,7.06,0,0,1-1.32,4.34,7.41,7.41,0,0,1-3.78,2.56l5.45,7.52Zm-1.88-10.38a5.6,5.6,0,0,0,0-8.13,7.9,7.9,0,0,0-5.08-1.42h-5.94v11h5.94A7.79,7.79,0,0,0,949.43,137.08Z"/><path d="M1006.84,145.45v2H991V125.52h15.32v2h-13v7.8H1005v2H993.4v8.15Z"/></g></g></svg>