<svg id="b8c62fa5-f2d6-4d11-a250-86595bb54e07" data-name="Layer 1" xmlns="http://www.w3.org/2000/svg" viewBox="0 0 3825.4 512"><defs><style>.a37362f9-6f94-4e1d-a667-78bac2de9b96{fill:#6cc6ee;}.b883c454-1d0f-4c45-9379-9cdd774d4701{fill:none;stroke:#6cc6ee;stroke-miterlimit:10;stroke-width:47.04px;}.bedd5658-91fa-4e55-a10d-30461f778a60{fill:#fff;}</style></defs><path class="a37362f9-6f94-4e1d-a667-78bac2de9b96" d="M11,11V501H787.21V11ZM399.55,488.75H23.25V23.25h376.3ZM625,391.54H551.17L449.84,120.46h70.07L589.6,322.22l70.82-201.76h67.43Z"/><path class="b883c454-1d0f-4c45-9379-9cdd774d4701" d="M70.92,253.48c33.07,115.77,57.89,145.21,76,143.87,60.24-4.44,69.14-277.71,119.2-282.66,29.24-2.89,58.91,66.14,83,141.33"/><rect class="a37362f9-6f94-4e1d-a667-78bac2de9b96" x="326.55" y="248.78" width="72.11" height="14.43"/><rect class="a37362f9-6f94-4e1d-a667-78bac2de9b96" x="23.25" y="246.81" width="70.31" height="14.43"/><path class="bedd5658-91fa-4e55-a10d-30461f778a60" d="M944.74,410.06q-34.51-10.51-54.62-27.89L910.69,336q19.65,15.54,48.23,25.37a175.13,175.13,0,0,0,57.37,9.83q35.65,0,53.25-11.43t17.6-30.17a29.23,29.23,0,0,0-9.83-22.63q-9.82-8.91-24.91-13.94t-41.14-11.43q-36.59-8.69-59.2-17.37A97.43,97.43,0,0,1,913.2,237Q897,218.52,897,187a85.41,85.41,0,0,1,14.4-48.23q14.4-21.71,43.43-34.51t71.09-12.8a229.54,229.54,0,0,1,57.6,7.32q28.34,7.31,48.91,21l-18.74,46.17a185.57,185.57,0,0,0-43.89-18.74,164.44,164.44,0,0,0-44.34-6.4q-35.21,0-52.34,11.89t-17.15,31.54q0,13.71,9.83,22.4t24.92,13.71q15.07,5,41.14,11.43,35.65,8.23,58.51,17.14a100.4,100.4,0,0,1,39.09,27.2q16.21,18.3,16.23,49.37a84.29,84.29,0,0,1-14.4,48q-14.4,21.5-43.66,34.29t-71.31,12.8A244.48,244.48,0,0,1,944.74,410.06Z"/><path class="bedd5658-91fa-4e55-a10d-30461f778a60" d="M1435.48,366.17V416h-240V96h233.6v49.83H1254.91V229h154.51v48.91H1254.91v88.23Z"/><path class="bedd5658-91fa-4e55-a10d-30461f778a60" d="M1777,96V416h-48.91L1551.59,199.31V416h-59V96h48.91L1718,312.69V96Z"/><path class="bedd5658-91fa-4e55-a10d-30461f778a60" d="M1881.41,410.06q-34.52-10.51-54.62-27.89L1847.36,336q19.65,15.54,48.22,25.37A175.23,175.23,0,0,0,1953,371.2q35.65,0,53.25-11.43t17.6-30.17A29.23,29.23,0,0,0,2014,307q-9.82-8.91-24.91-13.94t-41.14-11.43q-36.59-8.69-59.2-17.37a97.43,97.43,0,0,1-38.86-27.2q-16.23-18.51-16.23-50.06a85.41,85.41,0,0,1,14.4-48.23q14.4-21.71,43.43-34.51t71.09-12.8a229.47,229.47,0,0,1,57.59,7.32q28.35,7.31,48.92,21l-18.74,46.17a185.57,185.57,0,0,0-43.89-18.74,164.44,164.44,0,0,0-44.34-6.4q-35.2,0-52.34,11.89t-17.15,31.54q0,13.71,9.83,22.4t24.92,13.71q15.08,5,41.14,11.43,35.65,8.23,58.51,17.14a100.4,100.4,0,0,1,39.09,27.2q16.21,18.3,16.23,49.37a84.29,84.29,0,0,1-14.4,48q-14.4,21.5-43.66,34.29T1953,420.57A244.48,244.48,0,0,1,1881.41,410.06Z"/><path class="bedd5658-91fa-4e55-a10d-30461f778a60" d="M2372.15,366.17V416h-240V96h233.6v49.83H2191.58V229h154.51v48.91H2191.58v88.23Z"/><path class="a37362f9-6f94-4e1d-a667-78bac2de9b96" d="M2717.29,96,2577.86,416h-58.51L2379.46,96h64.46l106.51,246.86L2657.86,96Z"/><path class="a37362f9-6f94-4e1d-a667-78bac2de9b96" d="M2800,399.31a157.39,157.39,0,0,1-61.71-59q-22.41-37.71-22.4-84.34t22.4-84.34a157.32,157.32,0,0,1,61.71-59q39.31-21.25,88.23-21.26t88.23,21.26q39.3,21.25,61.71,58.74T3060.6,256q0,47.08-22.4,84.57t-61.71,58.74q-39.33,21.26-88.23,21.26T2800,399.31Zm145.83-45.25a104.25,104.25,0,0,0,40.23-40.23Q3000.7,288,3000.71,256t-14.62-57.83a104.32,104.32,0,0,0-40.23-40.23q-25.61-14.4-57.6-14.39t-57.6,14.39a104.18,104.18,0,0,0-40.23,40.23Q2775.79,224,2775.8,256t14.63,57.83a104.11,104.11,0,0,0,40.23,40.23q25.59,14.4,57.6,14.4T2945.86,354.06Z"/><path class="a37362f9-6f94-4e1d-a667-78bac2de9b96" d="M3114.54,96H3174V416h-59.43Z"/><path class="a37362f9-6f94-4e1d-a667-78bac2de9b96" d="M3311.79,399.31q-39.09-21.26-61.26-58.74T3228.36,256q0-47.08,22.4-84.57a158.34,158.34,0,0,1,61.48-58.74q39.09-21.25,87.54-21.26,39.31,0,71.77,13.72a146.23,146.23,0,0,1,54.86,39.77L3488,181q-34.74-37.49-85.48-37.48-32.93,0-59,14.39a103.78,103.78,0,0,0-40.69,40q-14.64,25.6-14.63,58.06t14.63,58.06a103.72,103.72,0,0,0,40.69,40q26.05,14.4,59,14.4,50.74,0,85.48-37.95l38.4,36.57a146,146,0,0,1-55.08,39.78q-32.7,13.71-72,13.71Q3350.87,420.57,3311.79,399.31Z"/><path class="a37362f9-6f94-4e1d-a667-78bac2de9b96" d="M3814.4,366.17V416h-240V96H3808v49.83H3633.83V229h154.52v48.91H3633.83v88.23Z"/></svg>