<svg id="e0b5c62e-3f56-4b16-90f4-7c8397c9f8ab" data-name="Layer 1" xmlns="http://www.w3.org/2000/svg" viewBox="0 0 352.29 48"><defs><style>.afce85a6-4f60-4be4-836b-7c73d23eaafb{fill:#6cc6ee;}.b36f2661-221d-4b15-8142-cc70a8747c94{fill:none;stroke:#6cc6ee;stroke-miterlimit:10;stroke-width:4.32px;}.b846bca8-97de-4c34-9ef8-049231ca92fa{fill:#fff;}</style></defs><path class="afce85a6-4f60-4be4-836b-7c73d23eaafb" d="M1.5,1.5v45H72.78V1.5ZM37.18,45.38H2.63V2.62H37.18Zm20.71-8.93H51.11L41.8,11.55h6.44l6.4,18.53,6.5-18.53h6.19Z"/><path class="b36f2661-221d-4b15-8142-cc70a8747c94" d="M7,23.77C10,34.4,12.32,37.1,14,37c5.53-.41,6.35-25.5,11-26,2.68-.26,5.41,6.08,7.62,13"/><rect class="afce85a6-4f60-4be4-836b-7c73d23eaafb" x="30.48" y="23.34" width="6.62" height="1.33"/><rect class="afce85a6-4f60-4be4-836b-7c73d23eaafb" x="2.62" y="23.16" width="6.46" height="1.33"/><path class="b846bca8-97de-4c34-9ef8-049231ca92fa" d="M87.25,38.15a14,14,0,0,1-5-2.56l1.89-4.24a15,15,0,0,0,4.43,2.33,16.17,16.17,0,0,0,5.27.9,9.06,9.06,0,0,0,4.89-1,3.17,3.17,0,0,0,1.62-2.77,2.7,2.7,0,0,0-.9-2.08,6.57,6.57,0,0,0-2.29-1.28c-.93-.31-2.18-.66-3.78-1a44.42,44.42,0,0,1-5.44-1.59,9.05,9.05,0,0,1-3.56-2.5,6.72,6.72,0,0,1-1.5-4.6,7.87,7.87,0,0,1,1.33-4.43,9,9,0,0,1,4-3.17A16.18,16.18,0,0,1,94.7,8.89a21,21,0,0,1,5.29.67,14.67,14.67,0,0,1,4.5,1.93l-1.73,4.24a16.59,16.59,0,0,0-4-1.72,15.12,15.12,0,0,0-4.07-.59,8.51,8.51,0,0,0-4.81,1.09,3.4,3.4,0,0,0-1.57,2.9,2.64,2.64,0,0,0,.9,2.06,6.61,6.61,0,0,0,2.29,1.26c.92.3,2.18.65,3.78,1a40.05,40.05,0,0,1,5.37,1.58,9.22,9.22,0,0,1,3.59,2.5,6.55,6.55,0,0,1,1.49,4.53,7.78,7.78,0,0,1-1.32,4.41,9,9,0,0,1-4,3.15,16.36,16.36,0,0,1-6.55,1.17A22.56,22.56,0,0,1,87.25,38.15Z"/><path class="b846bca8-97de-4c34-9ef8-049231ca92fa" d="M132.32,34.12v4.57h-22V9.31h21.45v4.57h-16v7.64h14.19V26H115.74v8.1Z"/><path class="b846bca8-97de-4c34-9ef8-049231ca92fa" d="M163.68,9.31V38.69h-4.49L143,18.79v19.9h-5.41V9.31h4.49l16.2,19.9V9.31Z"/><path class="b846bca8-97de-4c34-9ef8-049231ca92fa" d="M173.27,38.15a13.84,13.84,0,0,1-5-2.56l1.88-4.24a15,15,0,0,0,4.43,2.33,16.17,16.17,0,0,0,5.27.9,9.06,9.06,0,0,0,4.89-1,3.17,3.17,0,0,0,1.62-2.77,2.7,2.7,0,0,0-.9-2.08,6.48,6.48,0,0,0-2.29-1.28q-1.38-.46-3.78-1a44.42,44.42,0,0,1-5.44-1.59,9.05,9.05,0,0,1-3.56-2.5,6.72,6.72,0,0,1-1.49-4.6,7.86,7.86,0,0,1,1.32-4.43,9,9,0,0,1,4-3.17,16.18,16.18,0,0,1,6.52-1.17,20.9,20.9,0,0,1,5.29.67,14.67,14.67,0,0,1,4.5,1.93l-1.73,4.24a16.59,16.59,0,0,0-4-1.72,15.12,15.12,0,0,0-4.07-.59,8.45,8.45,0,0,0-4.8,1.09,3.38,3.38,0,0,0-1.58,2.9,2.64,2.64,0,0,0,.9,2.06,6.7,6.7,0,0,0,2.29,1.26c.93.3,2.18.65,3.78,1.05a38.77,38.77,0,0,1,5.37,1.57,9.22,9.22,0,0,1,3.59,2.5,6.55,6.55,0,0,1,1.49,4.53,7.78,7.78,0,0,1-1.32,4.41,9,9,0,0,1-4,3.15,16.36,16.36,0,0,1-6.55,1.17A22.61,22.61,0,0,1,173.27,38.15Z"/><path class="b846bca8-97de-4c34-9ef8-049231ca92fa" d="M218.34,34.12v4.57h-22V9.31h21.45v4.57h-16v7.64H216V26H201.76v8.1Z"/><path class="afce85a6-4f60-4be4-836b-7c73d23eaafb" d="M250,9.31,237.23,38.69h-5.37L219,9.31h5.92L234.71,32l9.87-22.67Z"/><path class="afce85a6-4f60-4be4-836b-7c73d23eaafb" d="M257.64,37.16A14.47,14.47,0,0,1,252,31.75,14.92,14.92,0,0,1,249.91,24,14.92,14.92,0,0,1,252,16.25a14.47,14.47,0,0,1,5.67-5.41,17.8,17.8,0,0,1,16.2,0,14.49,14.49,0,0,1,5.67,5.39A14.89,14.89,0,0,1,281.56,24a14.89,14.89,0,0,1-2.05,7.77,14.49,14.49,0,0,1-5.67,5.39,17.8,17.8,0,0,1-16.2,0ZM271,33a9.65,9.65,0,0,0,3.69-3.7A10.54,10.54,0,0,0,276.07,24a10.54,10.54,0,0,0-1.35-5.31A9.65,9.65,0,0,0,271,15a11.26,11.26,0,0,0-10.58,0,9.67,9.67,0,0,0-3.7,3.7A10.63,10.63,0,0,0,255.41,24a10.63,10.63,0,0,0,1.34,5.31,9.67,9.67,0,0,0,3.7,3.7A11.26,11.26,0,0,0,271,33Z"/><path class="afce85a6-4f60-4be4-836b-7c73d23eaafb" d="M286.52,9.31H292V38.69h-5.46Z"/><path class="afce85a6-4f60-4be4-836b-7c73d23eaafb" d="M304.63,37.16A14.36,14.36,0,0,1,299,31.77,15,15,0,0,1,297,24,14.89,14.89,0,0,1,299,16.23a14.51,14.51,0,0,1,5.65-5.39,16.54,16.54,0,0,1,8-1.95,16.81,16.81,0,0,1,6.6,1.26,13.41,13.41,0,0,1,5,3.65l-3.52,3.31A10.31,10.31,0,0,0,313,13.67,11,11,0,0,0,307.55,15a9.66,9.66,0,0,0-3.74,3.68A10.6,10.6,0,0,0,302.47,24a10.6,10.6,0,0,0,1.34,5.33A9.66,9.66,0,0,0,307.55,33,11,11,0,0,0,313,34.33a10.22,10.22,0,0,0,7.85-3.49l3.52,3.36a13.28,13.28,0,0,1-5.06,3.65,16.89,16.89,0,0,1-6.61,1.26A16.6,16.6,0,0,1,304.63,37.16Z"/><path class="afce85a6-4f60-4be4-836b-7c73d23eaafb" d="M350.79,34.12v4.57h-22V9.31H350.2v4.57h-16v7.64H348.4V26H334.21v8.1Z"/></svg>