<svg id="a611b5cd-f063-4284-8d52-32c79ebfe196" data-name="Layer 1" xmlns="http://www.w3.org/2000/svg" viewBox="0 0 469.72 64"><defs><style>.b53d3096-d95b-488a-96d3-d152c9515912{fill:#6cc6ee;}.e22071cf-d2f9-4049-b7ce-9b7ae9ad421e{fill:none;stroke:#6cc6ee;stroke-miterlimit:10;stroke-width:5.76px;}.a3cd7c98-03d3-4b9c-956e-3146e76cc0f4{fill:#fff;}</style></defs><path class="b53d3096-d95b-488a-96d3-d152c9515912" d="M2,2V62H97.05V2ZM49.58,60.5H3.5V3.5H49.58ZM77.19,48.6h-9L55.74,15.4h8.58l8.53,24.71L81.52,15.4h8.26Z"/><path class="e22071cf-d2f9-4049-b7ce-9b7ae9ad421e" d="M9.34,31.69c4.05,14.18,7.09,17.78,9.3,17.62,7.38-.55,8.47-34,14.6-34.61,3.58-.36,7.21,8.1,10.16,17.3"/><rect class="b53d3096-d95b-488a-96d3-d152c9515912" x="40.64" y="31.12" width="8.83" height="1.77"/><rect class="b53d3096-d95b-488a-96d3-d152c9515912" x="3.5" y="30.88" width="8.61" height="1.77"/><path class="a3cd7c98-03d3-4b9c-956e-3146e76cc0f4" d="M116.34,50.86a18.09,18.09,0,0,1-6.69-3.41l2.52-5.65a19.92,19.92,0,0,0,5.9,3.1,21.26,21.26,0,0,0,7,1.21q4.36,0,6.52-1.4a4.27,4.27,0,0,0,2.15-3.7,3.58,3.58,0,0,0-1.2-2.77,8.55,8.55,0,0,0-3-1.71c-1.23-.41-2.91-.87-5-1.4A57.1,57.1,0,0,1,117.23,33a12,12,0,0,1-4.76-3.33,9,9,0,0,1-2-6.13,10.44,10.44,0,0,1,1.76-5.91,11.88,11.88,0,0,1,5.32-4.22,21.45,21.45,0,0,1,8.7-1.57,28.38,28.38,0,0,1,7,.89,19.5,19.5,0,0,1,6,2.58L137,21a23,23,0,0,0-5.37-2.29,20.26,20.26,0,0,0-5.43-.79c-2.88,0-5,.49-6.41,1.46a4.49,4.49,0,0,0-2.1,3.86,3.48,3.48,0,0,0,1.2,2.74,8.66,8.66,0,0,0,3,1.68q1.85.61,5,1.4a52.11,52.11,0,0,1,7.16,2.1A12.34,12.34,0,0,1,139,34.46a8.82,8.82,0,0,1,2,6,10.33,10.33,0,0,1-1.77,5.88,11.92,11.92,0,0,1-5.34,4.19,21.66,21.66,0,0,1-8.73,1.57A29.76,29.76,0,0,1,116.34,50.86Z"/><path class="a3cd7c98-03d3-4b9c-956e-3146e76cc0f4" d="M176.43,45.49v6.1H147V12.41h28.6v6.1H154.32V28.7h18.92v6H154.32v10.8Z"/><path class="a3cd7c98-03d3-4b9c-956e-3146e76cc0f4" d="M218.24,12.41V51.59h-6L190.64,25.06V51.59h-7.22V12.41h6L211,38.94V12.41Z"/><path class="a3cd7c98-03d3-4b9c-956e-3146e76cc0f4" d="M231,50.86a18.09,18.09,0,0,1-6.69-3.41l2.52-5.65a19.86,19.86,0,0,0,5.91,3.1,21.25,21.25,0,0,0,7,1.21q4.36,0,6.52-1.4a4.25,4.25,0,0,0,2.16-3.7,3.59,3.59,0,0,0-1.21-2.77,8.55,8.55,0,0,0-3-1.71c-1.23-.41-2.91-.87-5-1.4A56.88,56.88,0,0,1,231.93,33a11.91,11.91,0,0,1-4.76-3.33,9,9,0,0,1-2-6.13,10.51,10.51,0,0,1,1.76-5.91,11.93,11.93,0,0,1,5.32-4.22A21.46,21.46,0,0,1,241,11.85a28.5,28.5,0,0,1,7.05.89,19.61,19.61,0,0,1,6,2.58L251.71,21a22.8,22.8,0,0,0-5.37-2.29,20.26,20.26,0,0,0-5.43-.79q-4.31,0-6.41,1.46a4.49,4.49,0,0,0-2.1,3.86A3.48,3.48,0,0,0,233.6,26a8.71,8.71,0,0,0,3.06,1.68q1.84.61,5,1.4a52.73,52.73,0,0,1,7.17,2.1,12.31,12.31,0,0,1,4.78,3.33,8.77,8.77,0,0,1,2,6,10.39,10.39,0,0,1-1.76,5.88,12,12,0,0,1-5.35,4.19,21.66,21.66,0,0,1-8.73,1.57A29.86,29.86,0,0,1,231,50.86Z"/><path class="a3cd7c98-03d3-4b9c-956e-3146e76cc0f4" d="M291.12,45.49v6.1H261.73V12.41h28.61v6.1H269V28.7h18.92v6H269v10.8Z"/><path class="b53d3096-d95b-488a-96d3-d152c9515912" d="M333.38,12.41,316.31,51.59h-7.17L292,12.41h7.89l13,30.23,13.16-30.23Z"/><path class="b53d3096-d95b-488a-96d3-d152c9515912" d="M343.51,49.55A19.22,19.22,0,0,1,336,42.33,19.83,19.83,0,0,1,333.21,32,19.83,19.83,0,0,1,336,21.67a19.22,19.22,0,0,1,7.55-7.22,23.75,23.75,0,0,1,21.61,0,19.45,19.45,0,0,1,7.56,7.19A19.81,19.81,0,0,1,375.42,32a19.81,19.81,0,0,1-2.74,10.36,19.38,19.38,0,0,1-7.56,7.19,23.75,23.75,0,0,1-21.61,0ZM361.37,44a12.83,12.83,0,0,0,4.93-4.93A14.16,14.16,0,0,0,368.09,32a14.16,14.16,0,0,0-1.79-7.08A12.83,12.83,0,0,0,361.37,20a15,15,0,0,0-14.11,0,12.74,12.74,0,0,0-4.92,4.93A14.06,14.06,0,0,0,340.55,32a14.06,14.06,0,0,0,1.79,7.08A12.74,12.74,0,0,0,347.26,44a15,15,0,0,0,14.11,0Z"/><path class="b53d3096-d95b-488a-96d3-d152c9515912" d="M382,12.41h7.28V51.59H382Z"/><path class="b53d3096-d95b-488a-96d3-d152c9515912" d="M406.18,49.55a19.22,19.22,0,0,1-7.5-7.19A20,20,0,0,1,396,32a19.9,19.9,0,0,1,2.74-10.36,19.5,19.5,0,0,1,7.53-7.19,23.59,23.59,0,0,1,19.51-.92,17.92,17.92,0,0,1,6.72,4.87l-4.7,4.42a13.73,13.73,0,0,0-10.47-4.59A14.7,14.7,0,0,0,410.07,20a12.68,12.68,0,0,0-5,4.9,14,14,0,0,0-1.8,7.11,14,14,0,0,0,1.8,7.11,12.68,12.68,0,0,0,5,4.9,14.7,14.7,0,0,0,7.22,1.76,13.65,13.65,0,0,0,10.47-4.65l4.7,4.48a17.87,17.87,0,0,1-6.75,4.87,22.53,22.53,0,0,1-8.81,1.68A22.11,22.11,0,0,1,406.18,49.55Z"/><path class="b53d3096-d95b-488a-96d3-d152c9515912" d="M467.72,45.49v6.1H438.34V12.41h28.6v6.1H445.61V28.7h18.92v6H445.61v10.8Z"/></svg>