<svg id="be8b1782-46b5-4e24-85a2-4ce4264d4240" data-name="Layer 1" xmlns="http://www.w3.org/2000/svg" viewBox="0 0 172.77 24"><defs><style>.a876cd26-8795-44e3-adc2-20644b0d5b19{fill:#6cc6ee;}.b0b9fe78-9109-48c1-b26f-6e3b7c69092b{fill:#fff;}.ea683602-9fde-4a27-8607-cb5055052feb{fill:none;stroke:#6cc6ee;stroke-miterlimit:10;stroke-width:2.11px;}.e779a3d7-2891-4324-9460-98dcdcc67dc0{fill:#161616;}</style></defs><rect class="a876cd26-8795-44e3-adc2-20644b0d5b19" x="1" y="1" width="34.85" height="22"/><rect class="b0b9fe78-9109-48c1-b26f-6e3b7c69092b" x="1.55" y="1.55" width="16.9" height="20.9"/><rect class="a876cd26-8795-44e3-adc2-20644b0d5b19" x="18.41" y="1.55" width="16.9" height="20.9"/><path class="ea683602-9fde-4a27-8607-cb5055052feb" d="M3.69,11.89c1.49,5.19,2.6,6.52,3.41,6.46,2.71-.2,3.11-12.47,5.35-12.69,1.32-.13,2.65,3,3.73,6.34"/><path class="b0b9fe78-9109-48c1-b26f-6e3b7c69092b" d="M25.25,18.09,20.7,5.91h3.15L27,15l3.18-9.06h3L28.57,18.09Z"/><rect class="a876cd26-8795-44e3-adc2-20644b0d5b19" x="15.17" y="11.68" width="3.24" height="0.65"/><rect class="a876cd26-8795-44e3-adc2-20644b0d5b19" x="1.55" y="11.59" width="3.16" height="0.65"/><path class="e779a3d7-2891-4324-9460-98dcdcc67dc0" d="M42.92,18.92a6.78,6.78,0,0,1-2.45-1.26l.92-2.07a7.07,7.07,0,0,0,2.17,1.14,7.69,7.69,0,0,0,2.58.44,4.49,4.49,0,0,0,2.39-.51,1.56,1.56,0,0,0,.79-1.36,1.32,1.32,0,0,0-.44-1,3.12,3.12,0,0,0-1.12-.63c-.45-.15-1.07-.32-1.85-.51a21.44,21.44,0,0,1-2.66-.78,4.34,4.34,0,0,1-1.74-1.22,3.29,3.29,0,0,1-.73-2.25,3.83,3.83,0,0,1,.64-2.16,4.45,4.45,0,0,1,1.95-1.55,7.82,7.82,0,0,1,3.2-.58,10.26,10.26,0,0,1,2.58.33,7.23,7.23,0,0,1,2.2.94L50.51,8a8.29,8.29,0,0,0-2-.84,7.1,7.1,0,0,0-2-.29,4.19,4.19,0,0,0-2.35.53,1.64,1.64,0,0,0-.77,1.42,1.25,1.25,0,0,0,.44,1A3.08,3.08,0,0,0,45,10.4c.45.15,1.06.32,1.84.51a20.81,20.81,0,0,1,2.63.77,4.69,4.69,0,0,1,1.76,1.22,3.26,3.26,0,0,1,.72,2.22,3.77,3.77,0,0,1-.64,2.15,4.36,4.36,0,0,1-2,1.54,7.89,7.89,0,0,1-3.2.58A11.2,11.2,0,0,1,42.92,18.92Z"/><path class="e779a3d7-2891-4324-9460-98dcdcc67dc0" d="M65,17v2.23H54.18V4.82H64.67V7.05H56.85v3.74h6.94V13H56.85v4Z"/><path class="e779a3d7-2891-4324-9460-98dcdcc67dc0" d="M80.29,4.82V19.18h-2.2L70.17,9.45v9.73H67.52V4.82h2.2l7.92,9.73V4.82Z"/><path class="e779a3d7-2891-4324-9460-98dcdcc67dc0" d="M85,18.92a6.7,6.7,0,0,1-2.45-1.26l.92-2.07a7.13,7.13,0,0,0,2.16,1.14,7.77,7.77,0,0,0,2.58.44,4.47,4.47,0,0,0,2.39-.51,1.54,1.54,0,0,0,.79-1.36,1.32,1.32,0,0,0-.44-1,3,3,0,0,0-1.12-.63c-.45-.15-1.07-.32-1.85-.51a21.21,21.21,0,0,1-2.65-.78,4.44,4.44,0,0,1-1.75-1.22,3.34,3.34,0,0,1-.73-2.25,3.84,3.84,0,0,1,.65-2.16,4.34,4.34,0,0,1,2-1.55,7.77,7.77,0,0,1,3.19-.58,10.28,10.28,0,0,1,2.59.33,7.07,7.07,0,0,1,2.19.94L92.56,8a8.12,8.12,0,0,0-2-.84,7,7,0,0,0-2-.29,4.21,4.21,0,0,0-2.35.53,1.66,1.66,0,0,0-.77,1.42,1.28,1.28,0,0,0,.44,1A3.26,3.26,0,0,0,87,10.4c.45.15,1.07.32,1.85.51a21.1,21.1,0,0,1,2.62.77,4.61,4.61,0,0,1,1.76,1.22A3.21,3.21,0,0,1,94,15.12a3.78,3.78,0,0,1-.65,2.15,4.3,4.3,0,0,1-2,1.54,7.82,7.82,0,0,1-3.2.58A11.08,11.08,0,0,1,85,18.92Z"/><path class="e779a3d7-2891-4324-9460-98dcdcc67dc0" d="M107,17v2.23H96.24V4.82h10.48V7.05H98.9v3.74h6.94V13H98.9v4Z"/><path class="a876cd26-8795-44e3-adc2-20644b0d5b19" d="M122.51,4.82l-6.26,14.36h-2.63L107.34,4.82h2.89L115,15.9l4.82-11.08Z"/><path class="a876cd26-8795-44e3-adc2-20644b0d5b19" d="M126.22,18.43a7,7,0,0,1-2.77-2.64,7.28,7.28,0,0,1-1-3.79,7.28,7.28,0,0,1,1-3.79,7,7,0,0,1,2.77-2.64,8.65,8.65,0,0,1,7.92,0,7.11,7.11,0,0,1,2.78,2.63,7.29,7.29,0,0,1,1,3.8,7.26,7.26,0,0,1-1,3.8,7.11,7.11,0,0,1-2.78,2.63,8.65,8.65,0,0,1-7.92,0Zm6.55-2a4.67,4.67,0,0,0,1.81-1.8,5.28,5.28,0,0,0,.65-2.6,5.28,5.28,0,0,0-.65-2.6,4.67,4.67,0,0,0-1.81-1.8,5.47,5.47,0,0,0-5.17,0,4.67,4.67,0,0,0-1.81,1.8,5.18,5.18,0,0,0-.66,2.6,5.18,5.18,0,0,0,.66,2.6,4.67,4.67,0,0,0,1.81,1.8,5.47,5.47,0,0,0,5.17,0Z"/><path class="a876cd26-8795-44e3-adc2-20644b0d5b19" d="M140.34,4.82H143V19.18h-2.67Z"/><path class="a876cd26-8795-44e3-adc2-20644b0d5b19" d="M149.2,18.43a7,7,0,0,1-2.75-2.63,7.26,7.26,0,0,1-1-3.8,7.3,7.3,0,0,1,1-3.8,7.06,7.06,0,0,1,2.76-2.63,8.05,8.05,0,0,1,3.93-1,8.18,8.18,0,0,1,3.22.62A6.55,6.55,0,0,1,158.83,7l-1.72,1.62A5,5,0,0,0,153.27,7a5.35,5.35,0,0,0-2.64.65,4.7,4.7,0,0,0-1.83,1.79,5.17,5.17,0,0,0-.66,2.61,5.17,5.17,0,0,0,.66,2.61,4.7,4.7,0,0,0,1.83,1.79,5.35,5.35,0,0,0,2.64.65,5,5,0,0,0,3.84-1.7L158.83,17a6.51,6.51,0,0,1-2.47,1.78,8.27,8.27,0,0,1-3.23.62A8.05,8.05,0,0,1,149.2,18.43Z"/><path class="a876cd26-8795-44e3-adc2-20644b0d5b19" d="M171.77,17v2.23H161V4.82h10.49V7.05h-7.82v3.74h6.94V13h-6.94v4Z"/></svg>