<svg id="a61f9001-7c92-49ba-885f-899c4deb2c41" data-name="Layer 1" xmlns="http://www.w3.org/2000/svg" viewBox="0 0 1892.42 256"><defs><style>.f0ddb52d-624c-4811-8b4f-90201979a122{fill:#6cc6ee;}.b41bc0fd-c983-4d51-86f7-ec8d467a7d77{fill:none;stroke:#6cc6ee;stroke-miterlimit:10;stroke-width:23.23px;}.f86ded5f-620b-447e-b643-de263b8dfd57{fill:#fff;}</style></defs><path class="f0ddb52d-624c-4811-8b4f-90201979a122" d="M7,7V249H390.35V7ZM198.9,243H13.05V13.05H198.9Zm111.35-48H273.78l-50-133.88h34.61l34.42,99.64,35-99.64H361Z"/><path class="b41bc0fd-c983-4d51-86f7-ec8d467a7d77" d="M36.59,126.76c16.33,57.17,28.59,71.71,37.53,71.05,29.75-2.19,34.15-137.15,58.87-139.6,14.44-1.43,29.1,32.67,41,69.8"/><rect class="f0ddb52d-624c-4811-8b4f-90201979a122" x="162.84" y="124.44" width="35.62" height="7.13"/><rect class="f0ddb52d-624c-4811-8b4f-90201979a122" x="13.05" y="123.46" width="34.73" height="7.13"/><path class="f86ded5f-620b-447e-b643-de263b8dfd57" d="M468.15,204.08q-17-5.19-27-13.77l10.16-22.8A80,80,0,0,0,475.15,180a86.51,86.51,0,0,0,28.34,4.85q17.61,0,26.3-5.64t8.69-14.9a14.45,14.45,0,0,0-4.85-11.18,34.24,34.24,0,0,0-12.31-6.88q-7.44-2.49-20.32-5.65a235,235,0,0,1-29.23-8.58,48,48,0,0,1-19.19-13.43q-8-9.15-8-24.72a42.18,42.18,0,0,1,7.11-23.82Q458.78,59.36,473.12,53t35.11-6.32a113.41,113.41,0,0,1,28.45,3.62,78.5,78.5,0,0,1,24.15,10.38l-9.25,22.8a91.65,91.65,0,0,0-21.68-9.25A81,81,0,0,0,508,71.11q-17.38,0-25.85,5.87t-8.46,15.57a14.08,14.08,0,0,0,4.85,11.07,35,35,0,0,0,12.3,6.77q7.46,2.49,20.32,5.64a214.83,214.83,0,0,1,28.9,8.47,49.58,49.58,0,0,1,19.3,13.43q8,9,8,24.39a41.62,41.62,0,0,1-7.11,23.7q-7.11,10.62-21.56,16.94t-35.22,6.32A120.39,120.39,0,0,1,468.15,204.08Z"/><path class="f86ded5f-620b-447e-b643-de263b8dfd57" d="M710.52,182.41V207H592V49H707.36V73.59h-86v41.09h76.31v24.16H621.34v43.57Z"/><path class="f86ded5f-620b-447e-b643-de263b8dfd57" d="M879.17,49V207H855L767.86,100V207H738.74V49H762.9L850,156V49Z"/><path class="f86ded5f-620b-447e-b643-de263b8dfd57" d="M930.75,204.08q-17-5.19-27-13.77l10.16-22.8A80,80,0,0,0,937.75,180a86.51,86.51,0,0,0,28.34,4.85q17.61,0,26.3-5.64t8.69-14.9a14.45,14.45,0,0,0-4.85-11.18,34.24,34.24,0,0,0-12.31-6.88q-7.44-2.49-20.32-5.65a235,235,0,0,1-29.23-8.58,48,48,0,0,1-19.19-13.43q-8-9.15-8-24.72a42.18,42.18,0,0,1,7.11-23.82Q921.38,59.36,935.72,53t35.11-6.32a113.41,113.41,0,0,1,28.45,3.62,78.5,78.5,0,0,1,24.15,10.38l-9.25,22.8a91.65,91.65,0,0,0-21.68-9.25,81,81,0,0,0-21.9-3.16q-17.39,0-25.85,5.87t-8.46,15.57a14.08,14.08,0,0,0,4.85,11.07,35,35,0,0,0,12.3,6.77q7.45,2.49,20.32,5.64a214.83,214.83,0,0,1,28.9,8.47,49.58,49.58,0,0,1,19.3,13.43q8,9,8,24.39a41.62,41.62,0,0,1-7.11,23.7q-7.11,10.62-21.56,16.94t-35.22,6.32A120.39,120.39,0,0,1,930.75,204.08Z"/><path class="f86ded5f-620b-447e-b643-de263b8dfd57" d="M1173.12,182.41V207H1054.59V49H1170V73.59h-86v41.09h76.31v24.16h-76.31v43.57Z"/><path class="f0ddb52d-624c-4811-8b4f-90201979a122" d="M1343.57,49l-68.86,158h-28.89L1176.73,49h31.83l52.61,121.92,53-121.92Z"/><path class="f0ddb52d-624c-4811-8b4f-90201979a122" d="M1384.44,198.78A77.68,77.68,0,0,1,1354,169.65Q1342.89,151,1342.9,128T1354,86.35a77.68,77.68,0,0,1,30.48-29.13q19.41-10.5,43.57-10.5t43.58,10.5a78,78,0,0,1,30.47,29q11.07,18.52,11.07,41.77t-11.07,41.77a78,78,0,0,1-30.47,29q-19.42,10.5-43.58,10.5T1384.44,198.78Zm72-22.35a51.42,51.42,0,0,0,19.87-19.87,57,57,0,0,0,7.22-28.56,57,57,0,0,0-7.22-28.56,51.48,51.48,0,0,0-19.87-19.87,60.48,60.48,0,0,0-56.9,0,51.39,51.39,0,0,0-19.86,19.87,56.93,56.93,0,0,0-7.23,28.56,56.87,56.87,0,0,0,7.23,28.56,51.32,51.32,0,0,0,19.86,19.87,60.48,60.48,0,0,0,56.9,0Z"/><path class="f0ddb52d-624c-4811-8b4f-90201979a122" d="M1539.77,49h29.35V207h-29.35Z"/><path class="f0ddb52d-624c-4811-8b4f-90201979a122" d="M1637.18,198.78a77.4,77.4,0,0,1-30.25-29q-11-18.51-11-41.77T1607,86.23a78.26,78.26,0,0,1,30.37-29q19.3-10.5,43.23-10.5a90.11,90.11,0,0,1,35.45,6.78,72.23,72.23,0,0,1,27.09,19.64l-19,17.83Q1707.06,72.46,1682,72.46a59.22,59.22,0,0,0-29.13,7.11,51.24,51.24,0,0,0-20.09,19.76,56.72,56.72,0,0,0-7.22,28.67,56.67,56.67,0,0,0,7.22,28.67,51.24,51.24,0,0,0,20.09,19.76,59.22,59.22,0,0,0,29.13,7.11q25.07,0,42.22-18.74l19,18.06A72,72,0,0,1,1716,202.5a91,91,0,0,1-35.56,6.78Q1656.48,209.28,1637.18,198.78Z"/><path class="f0ddb52d-624c-4811-8b4f-90201979a122" d="M1885.41,182.41V207H1766.89V49h115.36V73.59h-86v41.09h76.31v24.16h-76.31v43.57Z"/></svg>