<?xml version="1.0" encoding="utf-8"?>
<!-- Generator: Adobe Illustrator 25.1.0, SVG Export Plug-In . SVG Version: 6.00 Build 0)  -->
<svg version="1.1" id="b89fdc2c-f4e1-498a-a880-d13e56e916a8"
	 xmlns="http://www.w3.org/2000/svg" xmlns:xlink="http://www.w3.org/1999/xlink" x="0px" y="0px" viewBox="0 0 3825.4 512"
	 style="enable-background:new 0 0 3825.4 512;" xml:space="preserve">
<style type="text/css">
	.st0{fill:#6CC6EE;}
	.st1{fill:#FFFFFF;}
	.st2{fill:none;stroke:#6CC6EE;stroke-width:47.04;stroke-miterlimit:10;}
	.st3{fill:#161616;}
</style>
<g>
	<rect x="11" y="11" class="st0" width="776.2" height="490"/>
	<rect x="23.2" y="23.2" class="st1" width="376.3" height="465.5"/>
	<rect x="398.7" y="23.2" class="st0" width="376.3" height="465.5"/>
	<path class="st2" d="M70.9,253.5c33.1,115.8,57.9,145.2,76,143.9c60.2-4.4,69.1-277.7,119.2-282.7c29.2-2.9,58.9,66.1,83,141.3"/>
	<path class="st1" d="M551.2,391.5L449.8,120.5h70.1l69.7,201.8l70.8-201.8h67.4L625,391.5H551.2z"/>
	<rect x="326.5" y="248.8" class="st0" width="72.1" height="14.4"/>
	<rect x="23.2" y="246.8" class="st0" width="70.3" height="14.4"/>
	<path class="st3" d="M944.7,410.1c-23-7-41.2-16.3-54.6-27.9l20.6-46.2c13.1,10.4,29.2,18.8,48.2,25.4c18.4,6.5,37.8,9.8,57.4,9.8
		c23.8,0,41.5-3.8,53.3-11.4s17.6-17.7,17.6-30.2c0.2-8.6-3.4-16.9-9.8-22.6c-6.5-5.9-14.8-10.6-24.9-13.9s-23.8-7.2-41.1-11.4
		c-24.4-5.8-44.1-11.6-59.2-17.4c-15-5.7-28.3-15.1-38.9-27.2c-10.8-12.3-16.2-29-16.2-50c-0.2-17.2,4.9-34,14.4-48.2
		c9.6-14.5,24.1-26,43.4-34.5c19.4-8.5,43.1-12.8,71.1-12.8c19.4,0,38.8,2.5,57.6,7.3c18.9,4.9,35.2,11.9,48.9,21l-18.7,46.2
		c-13.8-8.1-28.5-14.4-43.9-18.7c-14.4-4.1-29.3-6.3-44.3-6.4c-23.5,0-40.9,4-52.3,11.9c-11.4,7.9-17.1,18.4-17.2,31.5
		c0,9.1,3.3,16.6,9.8,22.4s14.9,10.4,24.9,13.7c10,3.3,23.8,7.1,41.1,11.4c23.8,5.5,43.3,11.2,58.5,17.1c15,5.8,28.4,15.1,39.1,27.2
		c10.8,12.2,16.2,28.7,16.2,49.4c0.2,17.1-4.8,33.8-14.4,48c-9.6,14.3-24.2,25.8-43.7,34.3s-43.3,12.8-71.3,12.8
		C992.1,420.6,967.9,417.1,944.7,410.1z"/>
	<path class="st3" d="M1435.5,366.2V416h-240V96h233.6v49.8h-174.2V229h154.5v48.9h-154.5v88.2L1435.5,366.2z"/>
	<path class="st3" d="M1777,96v320h-48.9l-176.5-216.7V416h-59V96h48.9L1718,312.7V96H1777z"/>
	<path class="st3" d="M1881.4,410.1c-23-7-41.2-16.3-54.6-27.9l20.6-46.2c13.1,10.4,29.2,18.8,48.2,25.4c18.5,6.5,37.9,9.8,57.4,9.8
		c23.8,0,41.5-3.8,53.2-11.4s17.6-17.7,17.6-30.2c0.2-8.6-3.4-16.9-9.8-22.6c-6.5-5.9-14.8-10.6-24.9-13.9s-23.8-7.2-41.1-11.4
		c-24.4-5.8-44.1-11.6-59.2-17.4c-15-5.7-28.3-15.1-38.9-27.2c-10.8-12.3-16.2-29-16.2-50.1c-0.2-17.2,4.9-34,14.4-48.2
		c9.6-14.5,24.1-26,43.4-34.5c19.4-8.5,43-12.8,71.1-12.8c19.4,0,38.8,2.5,57.6,7.3c18.9,4.9,35.2,11.9,48.9,21l-18.7,46.2
		c-13.8-8.1-28.5-14.4-43.9-18.7c-14.4-4.1-29.3-6.3-44.3-6.4c-23.5,0-40.9,4-52.3,11.9c-11.4,7.9-17.1,18.4-17.2,31.5
		c0,9.1,3.3,16.6,9.8,22.4c6.6,5.8,14.9,10.4,24.9,13.7c10.1,3.3,23.8,7.1,41.1,11.4c23.8,5.5,43.3,11.2,58.5,17.1
		c15,5.8,28.4,15.1,39.1,27.2c10.8,12.2,16.2,28.7,16.2,49.4c0.2,17.1-4.8,33.8-14.4,48c-9.6,14.3-24.2,25.8-43.7,34.3
		c-19.5,8.5-43.3,12.8-71.3,12.8C1928.7,420.6,1904.6,417.1,1881.4,410.1z"/>
	<path class="st3" d="M2372.1,366.2V416h-240V96h233.6v49.8h-174.2V229h154.5v48.9h-154.5v88.2L2372.1,366.2z"/>
	<path class="st0" d="M2717.3,96l-139.4,320h-58.5L2379.5,96h64.5l106.5,246.9L2657.9,96H2717.3z"/>
	<path class="st0" d="M2800,399.3c-25.6-13.6-47-34-61.7-59c-14.9-25.1-22.4-53.3-22.4-84.3s7.5-59.2,22.4-84.3
		c14.7-25,36.1-45.4,61.7-59c26.2-14.2,55.6-21.3,88.2-21.3c32.6,0,62,7.1,88.2,21.3c26.2,14.2,46.8,33.7,61.7,58.7
		s22.4,53.2,22.4,84.6c0,31.4-7.5,59.6-22.4,84.6s-35.5,44.6-61.7,58.7c-26.2,14.2-55.6,21.3-88.2,21.3
		C2855.7,420.6,2826.2,413.5,2800,399.3z M2945.8,354.1c16.9-9.4,30.8-23.3,40.2-40.2c9.8-17.2,14.6-36.5,14.6-57.8
		s-4.9-40.6-14.6-57.8c-9.4-16.9-23.4-30.8-40.2-40.2c-17.1-9.6-36.3-14.4-57.6-14.4c-21.3,0-40.5,4.8-57.6,14.4
		c-16.9,9.4-30.8,23.3-40.2,40.2c-9.8,17.2-14.6,36.5-14.6,57.8c0,21.3,4.9,40.6,14.6,57.8c9.4,16.9,23.3,30.8,40.2,40.2
		c17.1,9.6,36.3,14.4,57.6,14.4C2909.6,368.5,2928.8,363.7,2945.8,354.1L2945.8,354.1z"/>
	<path class="st0" d="M3114.5,96h59.5v320h-59.4L3114.5,96z"/>
	<path class="st0" d="M3311.8,399.3c-26.1-14.2-46.5-33.8-61.3-58.7c-14.8-25-22.2-53.2-22.2-84.6c0-31.4,7.5-59.6,22.4-84.6
		c14.8-24.8,36-45.1,61.5-58.7c26.1-14.2,55.2-21.3,87.5-21.3c26.2,0,50.1,4.6,71.8,13.7c21.1,8.8,39.9,22.4,54.9,39.8L3488,181
		c-23.2-25-51.7-37.5-85.5-37.5c-22,0-41.6,4.8-59,14.4c-17,9.3-31.1,23.1-40.7,40c-9.8,17.1-14.6,36.4-14.6,58.1s4.9,41,14.6,58.1
		c9.6,16.9,23.7,30.7,40.7,40c17.4,9.6,37,14.4,59,14.4c33.8,0,62.3-12.6,85.5-38l38.4,36.6c-15,17.4-33.8,31-55.1,39.8
		c-21.8,9.1-45.8,13.7-72,13.7C3367,420.6,3337.8,413.5,3311.8,399.3z"/>
	<path class="st0" d="M3814.4,366.2V416h-240V96H3808v49.8h-174.2V229h154.5v48.9h-154.5v88.2L3814.4,366.2z"/>
</g>
</svg>
