<svg id="f0f8c851-0a2a-474b-9301-1ee7d61f6e1c" data-name="Layer 1" xmlns="http://www.w3.org/2000/svg" viewBox="0 0 259.15 36"><defs><style>.b768be98-e372-4fce-9c67-0673a7aeed59{fill:#6cc6ee;}.fc7c3d24-8bad-4665-a8be-0f3043466c05{fill:#fff;}.a705e0cd-273f-452f-b70f-964a230c7960{fill:none;stroke:#6cc6ee;stroke-miterlimit:10;stroke-width:3.17px;}.ad020a77-9e1b-4122-9d53-aa66fe163f7e{fill:#161616;}</style></defs><rect class="b768be98-e372-4fce-9c67-0673a7aeed59" x="1.5" y="1.5" width="52.28" height="33"/><rect class="fc7c3d24-8bad-4665-a8be-0f3043466c05" x="2.33" y="2.33" width="25.34" height="31.35"/><rect class="b768be98-e372-4fce-9c67-0673a7aeed59" x="27.61" y="2.33" width="25.34" height="31.35"/><path class="a705e0cd-273f-452f-b70f-964a230c7960" d="M5.54,17.83c2.22,7.8,3.89,9.78,5.11,9.69,4.06-.3,4.66-18.7,8-19,2-.19,4,4.46,5.59,9.52"/><path class="fc7c3d24-8bad-4665-a8be-0f3043466c05" d="M37.88,27.13,31.05,8.87h4.72l4.7,13.59L45.24,8.87h4.54L42.85,27.13Z"/><rect class="b768be98-e372-4fce-9c67-0673a7aeed59" x="22.75" y="17.51" width="4.86" height="0.97"/><rect class="b768be98-e372-4fce-9c67-0673a7aeed59" x="2.33" y="17.38" width="4.74" height="0.97"/><path class="ad020a77-9e1b-4122-9d53-aa66fe163f7e" d="M64.38,28.38a10.1,10.1,0,0,1-3.67-1.88l1.38-3.11a10.85,10.85,0,0,0,3.25,1.71,11.82,11.82,0,0,0,3.86.66A6.72,6.72,0,0,0,72.79,25,2.32,2.32,0,0,0,74,23a2,2,0,0,0-.66-1.53,4.73,4.73,0,0,0-1.67-.94C71,20.27,70,20,68.86,19.72a31.93,31.93,0,0,1-4-1.17,6.56,6.56,0,0,1-2.62-1.83,4.91,4.91,0,0,1-1.09-3.37,5.74,5.74,0,0,1,1-3.25,6.52,6.52,0,0,1,2.92-2.32,11.79,11.79,0,0,1,4.79-.86,15.4,15.4,0,0,1,3.88.49A10.63,10.63,0,0,1,77,8.83l-1.26,3.1a12.62,12.62,0,0,0-3-1.26,11.3,11.3,0,0,0-3-.43,6.29,6.29,0,0,0-3.53.8,2.47,2.47,0,0,0-1.15,2.13,1.93,1.93,0,0,0,.66,1.51,4.82,4.82,0,0,0,1.68.92c.68.22,1.6.48,2.77.77a29.54,29.54,0,0,1,3.94,1.15,6.73,6.73,0,0,1,2.63,1.83,4.85,4.85,0,0,1,1.1,3.33,5.71,5.71,0,0,1-1,3.23A6.57,6.57,0,0,1,74,28.22a11.92,11.92,0,0,1-4.81.86A16.53,16.53,0,0,1,64.38,28.38Z"/><path class="ad020a77-9e1b-4122-9d53-aa66fe163f7e" d="M97.43,25.42v3.36H81.27V7.22H97v3.36H85.27v5.6H95.68v3.3H85.27v5.94Z"/><path class="ad020a77-9e1b-4122-9d53-aa66fe163f7e" d="M120.43,7.22V28.78h-3.29l-11.89-14.6v14.6h-4V7.22h3.3l11.88,14.6V7.22Z"/><path class="ad020a77-9e1b-4122-9d53-aa66fe163f7e" d="M127.47,28.38a10.15,10.15,0,0,1-3.68-1.88l1.38-3.11a11,11,0,0,0,3.25,1.71,11.82,11.82,0,0,0,3.86.66,6.7,6.7,0,0,0,3.59-.77,2.33,2.33,0,0,0,1.19-2,2,2,0,0,0-.67-1.53,4.73,4.73,0,0,0-1.67-.94c-.68-.22-1.6-.48-2.77-.77a32.16,32.16,0,0,1-4-1.17,6.56,6.56,0,0,1-2.62-1.83,4.91,4.91,0,0,1-1.09-3.37,5.74,5.74,0,0,1,1-3.25,6.58,6.58,0,0,1,2.92-2.32,11.79,11.79,0,0,1,4.79-.86,15.4,15.4,0,0,1,3.88.49,10.63,10.63,0,0,1,3.29,1.42l-1.26,3.11a12.35,12.35,0,0,0-3-1.27,11.43,11.43,0,0,0-3-.43,6.25,6.25,0,0,0-3.52.8,2.48,2.48,0,0,0-1.16,2.13,1.93,1.93,0,0,0,.66,1.51,4.82,4.82,0,0,0,1.68.92c.68.22,1.6.48,2.77.77a29.09,29.09,0,0,1,3.94,1.15,6.66,6.66,0,0,1,2.63,1.83,4.85,4.85,0,0,1,1.1,3.33,5.71,5.71,0,0,1-1,3.23,6.57,6.57,0,0,1-2.94,2.31,11.92,11.92,0,0,1-4.81.86A16.46,16.46,0,0,1,127.47,28.38Z"/><path class="ad020a77-9e1b-4122-9d53-aa66fe163f7e" d="M160.52,25.42v3.36H144.35V7.22h15.74v3.36H148.36v5.6h10.4v3.3h-10.4v5.94Z"/><path class="b768be98-e372-4fce-9c67-0673a7aeed59" d="M183.76,7.22l-9.39,21.56h-3.94L161,7.22h4.34l7.17,16.63,7.24-16.63Z"/><path class="b768be98-e372-4fce-9c67-0673a7aeed59" d="M189.33,27.65a10.57,10.57,0,0,1-4.15-4A10.87,10.87,0,0,1,183.67,18a10.87,10.87,0,0,1,1.51-5.68,10.57,10.57,0,0,1,4.15-4,13.07,13.07,0,0,1,11.89,0,10.59,10.59,0,0,1,4.15,4,10.89,10.89,0,0,1,1.51,5.7,10.89,10.89,0,0,1-1.51,5.7,10.59,10.59,0,0,1-4.15,3.95,13.07,13.07,0,0,1-11.89,0Zm9.82-3a6.92,6.92,0,0,0,2.71-2.71,7.68,7.68,0,0,0,1-3.89,7.71,7.71,0,0,0-1-3.89,6.92,6.92,0,0,0-2.71-2.71,8.23,8.23,0,0,0-7.75,0,6.92,6.92,0,0,0-2.71,2.71,7.71,7.71,0,0,0-1,3.89,7.68,7.68,0,0,0,1,3.89,6.92,6.92,0,0,0,2.71,2.71,8.23,8.23,0,0,0,7.75,0Z"/><path class="b768be98-e372-4fce-9c67-0673a7aeed59" d="M210.51,7.22h4V28.78h-4Z"/><path class="b768be98-e372-4fce-9c67-0673a7aeed59" d="M223.8,27.65a10.54,10.54,0,0,1-4.13-3.95,11.07,11.07,0,0,1-1.49-5.7,10.89,10.89,0,0,1,1.51-5.7,10.56,10.56,0,0,1,4.14-4,12.05,12.05,0,0,1,5.89-1.43,12.25,12.25,0,0,1,4.84.92,9.9,9.9,0,0,1,3.69,2.68L235.67,13a7.55,7.55,0,0,0-5.76-2.52,8,8,0,0,0-4,1,6.89,6.89,0,0,0-2.74,2.69,7.7,7.7,0,0,0-1,3.91,7.7,7.7,0,0,0,1,3.91,6.89,6.89,0,0,0,2.74,2.69,8,8,0,0,0,4,1A7.51,7.51,0,0,0,235.67,23l2.58,2.46a9.82,9.82,0,0,1-3.71,2.68,12.33,12.33,0,0,1-4.85.92A12.05,12.05,0,0,1,223.8,27.65Z"/><path class="b768be98-e372-4fce-9c67-0673a7aeed59" d="M257.65,25.42v3.36H241.48V7.22h15.74v3.36H245.49v5.6h10.4v3.3h-10.4v5.94Z"/></svg>