<svg id="aacea47e-c7d9-415b-8db8-23f565446d85" data-name="Layer 1" xmlns="http://www.w3.org/2000/svg" viewBox="0 0 1892.42 256"><defs><style>.a10b98ce-bc97-4072-a263-6111b1ccdc80{fill:#6cc6ee;}.b6225b51-3705-4940-a4b8-c8ac5bf93e4b{fill:#fff;}.e0bc5801-6716-47bc-8958-93e34f1f210f{fill:none;stroke:#6cc6ee;stroke-miterlimit:10;stroke-width:23.23px;}.f3474b03-c051-4e42-af1c-7712395bd188{fill:#161616;}</style></defs><rect class="a10b98ce-bc97-4072-a263-6111b1ccdc80" x="7" y="7" width="383.35" height="242"/><rect class="b6225b51-3705-4940-a4b8-c8ac5bf93e4b" x="13.05" y="13.05" width="185.85" height="229.9"/><rect class="a10b98ce-bc97-4072-a263-6111b1ccdc80" x="198.46" y="13.05" width="185.85" height="229.9"/><path class="e0bc5801-6716-47bc-8958-93e34f1f210f" d="M36.59,126.76c16.34,57.17,28.59,71.71,37.53,71.05,29.76-2.19,34.15-137.15,58.87-139.6,14.44-1.43,29.1,32.67,41,69.8"/><path class="b6225b51-3705-4940-a4b8-c8ac5bf93e4b" d="M273.78,194.94l-50-133.88h34.6l34.42,99.65,35-99.65H361L310.25,194.94Z"/><rect class="a10b98ce-bc97-4072-a263-6111b1ccdc80" x="162.84" y="124.44" width="35.62" height="7.13"/><rect class="a10b98ce-bc97-4072-a263-6111b1ccdc80" x="13.05" y="123.46" width="34.73" height="7.13"/><path class="f3474b03-c051-4e42-af1c-7712395bd188" d="M468.16,204.08q-17.06-5.19-27-13.77l10.16-22.8A80.07,80.07,0,0,0,475.15,180a86.56,86.56,0,0,0,28.34,4.85q17.61,0,26.3-5.64t8.69-14.9a14.45,14.45,0,0,0-4.85-11.18,34.24,34.24,0,0,0-12.31-6.88q-7.44-2.49-20.32-5.65a235,235,0,0,1-29.23-8.58,48,48,0,0,1-19.19-13.43q-8-9.15-8-24.72a42.18,42.18,0,0,1,7.11-23.82Q458.8,59.36,473.12,53t35.11-6.32a113.41,113.41,0,0,1,28.45,3.62,78.5,78.5,0,0,1,24.15,10.38l-9.25,22.8a91.65,91.65,0,0,0-21.68-9.25A81,81,0,0,0,508,71.11q-17.38,0-25.85,5.87t-8.46,15.57a14.08,14.08,0,0,0,4.85,11.07,35,35,0,0,0,12.31,6.77q7.44,2.49,20.31,5.64a214.83,214.83,0,0,1,28.9,8.47,49.69,49.69,0,0,1,19.31,13.43q8,9,8,24.39a41.62,41.62,0,0,1-7.11,23.7q-7.11,10.62-21.56,16.94t-35.22,6.32A120.27,120.27,0,0,1,468.16,204.08Z"/><path class="f3474b03-c051-4e42-af1c-7712395bd188" d="M710.52,182.41V207H592V49H707.36V73.59h-86v41.09h76.31v24.16H621.34v43.57Z"/><path class="f3474b03-c051-4e42-af1c-7712395bd188" d="M879.17,49V207H855L767.86,100V207H738.74V49H762.9L850,156V49Z"/><path class="f3474b03-c051-4e42-af1c-7712395bd188" d="M930.76,204.08q-17.06-5.19-27-13.77l10.16-22.8A80.07,80.07,0,0,0,937.75,180a86.56,86.56,0,0,0,28.34,4.85q17.61,0,26.3-5.64t8.69-14.9a14.45,14.45,0,0,0-4.85-11.18,34.24,34.24,0,0,0-12.31-6.88q-7.44-2.49-20.32-5.65a235,235,0,0,1-29.23-8.58,48,48,0,0,1-19.19-13.43q-8-9.15-8-24.72a42.18,42.18,0,0,1,7.11-23.82Q921.4,59.36,935.72,53t35.11-6.32a113.41,113.41,0,0,1,28.45,3.62,78.5,78.5,0,0,1,24.15,10.38l-9.25,22.8a91.65,91.65,0,0,0-21.68-9.25,80.9,80.9,0,0,0-21.9-3.16q-17.39,0-25.85,5.87t-8.46,15.57a14.08,14.08,0,0,0,4.85,11.07,35,35,0,0,0,12.31,6.77q7.44,2.49,20.31,5.64a214.39,214.39,0,0,1,28.9,8.47A49.69,49.69,0,0,1,1022,137.93q8,9,8,24.39a41.62,41.62,0,0,1-7.11,23.7q-7.11,10.62-21.56,16.94t-35.22,6.32A120.27,120.27,0,0,1,930.76,204.08Z"/><path class="f3474b03-c051-4e42-af1c-7712395bd188" d="M1173.12,182.41V207H1054.59V49H1170V73.59h-86v41.09h76.31v24.16h-76.31v43.57Z"/><path class="a10b98ce-bc97-4072-a263-6111b1ccdc80" d="M1343.58,49l-68.86,158h-28.9L1176.73,49h31.84l52.6,121.92L1314.23,49Z"/><path class="a10b98ce-bc97-4072-a263-6111b1ccdc80" d="M1384.44,198.78A77.68,77.68,0,0,1,1354,169.65Q1342.89,151,1342.9,128T1354,86.35a77.68,77.68,0,0,1,30.48-29.13q19.41-10.5,43.57-10.5t43.58,10.5a78.08,78.08,0,0,1,30.48,29q11.06,18.52,11.06,41.77t-11.06,41.77a78.08,78.08,0,0,1-30.48,29q-19.42,10.5-43.58,10.5T1384.44,198.78Zm72-22.35a51.42,51.42,0,0,0,19.87-19.87,57,57,0,0,0,7.22-28.56,57,57,0,0,0-7.22-28.56,51.48,51.48,0,0,0-19.87-19.87,60.46,60.46,0,0,0-56.89,0,51.35,51.35,0,0,0-19.87,19.87,56.93,56.93,0,0,0-7.23,28.56,56.87,56.87,0,0,0,7.23,28.56,51.28,51.28,0,0,0,19.87,19.87,60.46,60.46,0,0,0,56.89,0Z"/><path class="a10b98ce-bc97-4072-a263-6111b1ccdc80" d="M1539.77,49h29.35V207h-29.35Z"/><path class="a10b98ce-bc97-4072-a263-6111b1ccdc80" d="M1637.18,198.78a77.46,77.46,0,0,1-30.25-29q-11-18.51-11-41.77T1607,86.23a78.26,78.26,0,0,1,30.37-29q19.3-10.5,43.23-10.5a90.11,90.11,0,0,1,35.45,6.78,72.15,72.15,0,0,1,27.09,19.64l-19,17.83Q1707.06,72.46,1682,72.46a59.16,59.16,0,0,0-29.12,7.11,51.26,51.26,0,0,0-20.1,19.76,56.72,56.72,0,0,0-7.22,28.67,56.67,56.67,0,0,0,7.22,28.67,51.26,51.26,0,0,0,20.1,19.76,59.16,59.16,0,0,0,29.12,7.11q25.07,0,42.22-18.74l19,18.06A72,72,0,0,1,1716,202.5a91,91,0,0,1-35.56,6.78Q1656.48,209.28,1637.18,198.78Z"/><path class="a10b98ce-bc97-4072-a263-6111b1ccdc80" d="M1885.42,182.41V207H1766.89V49h115.36V73.59h-86v41.09h76.31v24.16h-76.31v43.57Z"/></svg>